<mxfile host="drawio-plugin" modified="2025-07-26T05:46:27.130Z" agent="Mozilla/5.0 (X11; Linux x86_64) AppleWebKit/537.36 (KHTML, like Gecko) Chrome/122.0.0.0 Safari/537.36" etag="cZhWE1Yf32zZUe8OmET0" version="22.1.22" type="embed" pages="2">
  <diagram name="Configurations" id="nSLMvqq1_s9JcMIWVHJ0">
    <mxGraphModel dx="1129" dy="1161" grid="1" gridSize="10" guides="1" tooltips="1" connect="1" arrows="1" fold="1" page="1" pageScale="1" pageWidth="1600" pageHeight="1200" math="0" shadow="0">
      <root>
        <mxCell id="tFxSJcbVjkW49yoVQv_u-0" />
        <mxCell id="tFxSJcbVjkW49yoVQv_u-1" parent="tFxSJcbVjkW49yoVQv_u-0" />
        <mxCell id="9fxciIHvsaQsYW9dtywq-3" value="" style="verticalLabelPosition=bottom;verticalAlign=top;html=1;shape=mxgraph.basic.rect;fillColor2=none;strokeWidth=2;size=20;indent=5;fillColor=#f5f5f5;fontColor=#333333;strokeColor=#666666;" parent="tFxSJcbVjkW49yoVQv_u-1" vertex="1">
          <mxGeometry x="440" y="280" width="800" height="560" as="geometry" />
        </mxCell>
        <mxCell id="9fxciIHvsaQsYW9dtywq-2" value="" style="verticalLabelPosition=bottom;verticalAlign=top;html=1;shape=mxgraph.basic.rect;fillColor2=none;strokeWidth=2;size=20;indent=5;fillColor=#f5f5f5;fontColor=#333333;strokeColor=#666666;" parent="tFxSJcbVjkW49yoVQv_u-1" vertex="1">
          <mxGeometry x="400" y="240" width="800" height="560" as="geometry" />
        </mxCell>
        <mxCell id="tFxSJcbVjkW49yoVQv_u-2" style="edgeStyle=orthogonalEdgeStyle;rounded=0;orthogonalLoop=1;jettySize=auto;html=1;" parent="tFxSJcbVjkW49yoVQv_u-1" source="tFxSJcbVjkW49yoVQv_u-3" target="tFxSJcbVjkW49yoVQv_u-5" edge="1">
          <mxGeometry relative="1" as="geometry" />
        </mxCell>
        <mxCell id="tFxSJcbVjkW49yoVQv_u-3" value="Front Controller" style="rounded=0;whiteSpace=wrap;html=1;" parent="tFxSJcbVjkW49yoVQv_u-1" vertex="1">
          <mxGeometry x="440" y="480" width="160" height="80" as="geometry" />
        </mxCell>
        <mxCell id="tFxSJcbVjkW49yoVQv_u-4" style="edgeStyle=orthogonalEdgeStyle;rounded=0;orthogonalLoop=1;jettySize=auto;html=1;entryX=0;entryY=0.5;entryDx=0;entryDy=0;" parent="tFxSJcbVjkW49yoVQv_u-1" source="tFxSJcbVjkW49yoVQv_u-5" target="tFxSJcbVjkW49yoVQv_u-7" edge="1">
          <mxGeometry relative="1" as="geometry" />
        </mxCell>
        <mxCell id="tFxSJcbVjkW49yoVQv_u-5" value="Kernel" style="rounded=0;whiteSpace=wrap;html=1;" parent="tFxSJcbVjkW49yoVQv_u-1" vertex="1">
          <mxGeometry x="720" y="480" width="160" height="80" as="geometry" />
        </mxCell>
        <mxCell id="tFxSJcbVjkW49yoVQv_u-6" style="edgeStyle=orthogonalEdgeStyle;rounded=0;orthogonalLoop=1;jettySize=auto;html=1;entryX=0.25;entryY=0;entryDx=0;entryDy=0;exitX=0.25;exitY=1;exitDx=0;exitDy=0;" parent="tFxSJcbVjkW49yoVQv_u-1" edge="1">
          <mxGeometry relative="1" as="geometry">
            <mxPoint x="1040" y="360" as="sourcePoint" />
            <mxPoint x="1040" y="680" as="targetPoint" />
          </mxGeometry>
        </mxCell>
        <mxCell id="tFxSJcbVjkW49yoVQv_u-7" value="Controller" style="rounded=0;whiteSpace=wrap;html=1;" parent="tFxSJcbVjkW49yoVQv_u-1" vertex="1">
          <mxGeometry x="1000" y="480" width="160" height="80" as="geometry" />
        </mxCell>
        <mxCell id="tFxSJcbVjkW49yoVQv_u-8" style="edgeStyle=orthogonalEdgeStyle;rounded=0;orthogonalLoop=1;jettySize=auto;html=1;entryX=0;entryY=0.5;entryDx=0;entryDy=0;" parent="tFxSJcbVjkW49yoVQv_u-1" source="tFxSJcbVjkW49yoVQv_u-9" target="tFxSJcbVjkW49yoVQv_u-3" edge="1">
          <mxGeometry relative="1" as="geometry" />
        </mxCell>
        <mxCell id="tFxSJcbVjkW49yoVQv_u-9" value="Request" style="strokeWidth=2;html=1;shape=mxgraph.flowchart.terminator;whiteSpace=wrap;" parent="tFxSJcbVjkW49yoVQv_u-1" vertex="1">
          <mxGeometry x="160" y="490" width="160" height="60" as="geometry" />
        </mxCell>
        <mxCell id="tFxSJcbVjkW49yoVQv_u-10" value="Response" style="strokeWidth=2;html=1;shape=mxgraph.flowchart.terminator;whiteSpace=wrap;" parent="tFxSJcbVjkW49yoVQv_u-1" vertex="1">
          <mxGeometry x="1280" y="490" width="160" height="60" as="geometry" />
        </mxCell>
        <mxCell id="tFxSJcbVjkW49yoVQv_u-11" style="edgeStyle=orthogonalEdgeStyle;rounded=0;orthogonalLoop=1;jettySize=auto;html=1;entryX=0.75;entryY=0;entryDx=0;entryDy=0;exitX=0.75;exitY=1.025;exitDx=0;exitDy=0;exitPerimeter=0;endArrow=none;endFill=0;" parent="tFxSJcbVjkW49yoVQv_u-1" source="tFxSJcbVjkW49yoVQv_u-15" target="tFxSJcbVjkW49yoVQv_u-7" edge="1">
          <mxGeometry relative="1" as="geometry">
            <mxPoint x="1080" y="360" as="sourcePoint" />
          </mxGeometry>
        </mxCell>
        <mxCell id="tFxSJcbVjkW49yoVQv_u-12" value="public/index.php" style="text;html=1;align=center;verticalAlign=middle;resizable=0;points=[];autosize=1;strokeColor=none;fillColor=none;" parent="tFxSJcbVjkW49yoVQv_u-1" vertex="1">
          <mxGeometry x="465" y="560" width="110" height="30" as="geometry" />
        </mxCell>
        <mxCell id="tFxSJcbVjkW49yoVQv_u-13" value="src/Kernel.php" style="text;html=1;align=center;verticalAlign=middle;resizable=0;points=[];autosize=1;strokeColor=none;fillColor=none;" parent="tFxSJcbVjkW49yoVQv_u-1" vertex="1">
          <mxGeometry x="750" y="560" width="100" height="30" as="geometry" />
        </mxCell>
        <mxCell id="tFxSJcbVjkW49yoVQv_u-14" style="edgeStyle=orthogonalEdgeStyle;rounded=0;orthogonalLoop=1;jettySize=auto;html=1;entryX=0.75;entryY=1;entryDx=0;entryDy=0;exitX=0.75;exitY=0;exitDx=0;exitDy=0;exitPerimeter=0;" parent="tFxSJcbVjkW49yoVQv_u-1" source="tFxSJcbVjkW49yoVQv_u-19" target="tFxSJcbVjkW49yoVQv_u-7" edge="1">
          <mxGeometry relative="1" as="geometry">
            <mxPoint x="1120" y="680" as="sourcePoint" />
          </mxGeometry>
        </mxCell>
        <mxCell id="tFxSJcbVjkW49yoVQv_u-15" value="Databases" style="strokeWidth=2;html=1;shape=mxgraph.flowchart.database;whiteSpace=wrap;" parent="tFxSJcbVjkW49yoVQv_u-1" vertex="1">
          <mxGeometry x="1000" y="80" width="160" height="80" as="geometry" />
        </mxCell>
        <mxCell id="tFxSJcbVjkW49yoVQv_u-16" style="edgeStyle=orthogonalEdgeStyle;rounded=0;orthogonalLoop=1;jettySize=auto;html=1;entryX=0;entryY=0.5;entryDx=0;entryDy=0;entryPerimeter=0;" parent="tFxSJcbVjkW49yoVQv_u-1" source="tFxSJcbVjkW49yoVQv_u-7" target="tFxSJcbVjkW49yoVQv_u-10" edge="1">
          <mxGeometry relative="1" as="geometry" />
        </mxCell>
        <mxCell id="tFxSJcbVjkW49yoVQv_u-17" style="edgeStyle=orthogonalEdgeStyle;rounded=0;orthogonalLoop=1;jettySize=auto;html=1;entryX=0.25;entryY=1.013;entryDx=0;entryDy=0;entryPerimeter=0;endArrow=none;endFill=0;exitX=0.5;exitY=0;exitDx=0;exitDy=0;exitPerimeter=0;startArrow=none;startFill=0;" parent="tFxSJcbVjkW49yoVQv_u-1" source="tFxSJcbVjkW49yoVQv_u-18" target="tFxSJcbVjkW49yoVQv_u-15" edge="1">
          <mxGeometry relative="1" as="geometry">
            <mxPoint x="880" y="320" as="sourcePoint" />
          </mxGeometry>
        </mxCell>
        <mxCell id="tFxSJcbVjkW49yoVQv_u-18" value="Cache" style="strokeWidth=2;html=1;shape=mxgraph.flowchart.direct_data;whiteSpace=wrap;" parent="tFxSJcbVjkW49yoVQv_u-1" vertex="1">
          <mxGeometry x="990" y="290" width="100" height="60" as="geometry" />
        </mxCell>
        <mxCell id="tFxSJcbVjkW49yoVQv_u-19" value="Templates" style="strokeWidth=1;html=1;shape=mxgraph.flowchart.document2;whiteSpace=wrap;size=0.25;" parent="tFxSJcbVjkW49yoVQv_u-1" vertex="1">
          <mxGeometry x="1000" y="680" width="160" height="80" as="geometry" />
        </mxCell>
        <mxCell id="tFxSJcbVjkW49yoVQv_u-20" style="edgeStyle=orthogonalEdgeStyle;rounded=0;orthogonalLoop=1;jettySize=auto;html=1;entryX=0.25;entryY=1;entryDx=0;entryDy=0;exitX=0.25;exitY=0;exitDx=0;exitDy=0;" parent="tFxSJcbVjkW49yoVQv_u-1" target="tFxSJcbVjkW49yoVQv_u-22" edge="1">
          <mxGeometry relative="1" as="geometry">
            <mxPoint x="760" y="480" as="sourcePoint" />
          </mxGeometry>
        </mxCell>
        <mxCell id="tFxSJcbVjkW49yoVQv_u-21" style="edgeStyle=orthogonalEdgeStyle;rounded=0;orthogonalLoop=1;jettySize=auto;html=1;exitX=0.75;exitY=1;exitDx=0;exitDy=0;" parent="tFxSJcbVjkW49yoVQv_u-1" source="tFxSJcbVjkW49yoVQv_u-22" edge="1">
          <mxGeometry relative="1" as="geometry">
            <mxPoint x="840" y="480" as="targetPoint" />
          </mxGeometry>
        </mxCell>
        <mxCell id="tFxSJcbVjkW49yoVQv_u-22" value="Routing" style="rounded=0;whiteSpace=wrap;html=1;" parent="tFxSJcbVjkW49yoVQv_u-1" vertex="1">
          <mxGeometry x="720" y="280" width="160" height="80" as="geometry" />
        </mxCell>
        <mxCell id="tFxSJcbVjkW49yoVQv_u-23" style="edgeStyle=orthogonalEdgeStyle;rounded=0;orthogonalLoop=1;jettySize=auto;html=1;entryX=0.5;entryY=1;entryDx=0;entryDy=0;entryPerimeter=0;exitX=0.25;exitY=0;exitDx=0;exitDy=0;endArrow=none;endFill=0;" parent="tFxSJcbVjkW49yoVQv_u-1" source="tFxSJcbVjkW49yoVQv_u-7" target="tFxSJcbVjkW49yoVQv_u-18" edge="1">
          <mxGeometry relative="1" as="geometry" />
        </mxCell>
        <mxCell id="9fxciIHvsaQsYW9dtywq-4" value="Environment" style="text;html=1;align=center;verticalAlign=middle;resizable=0;points=[];autosize=1;strokeColor=none;fillColor=none;fontSize=18;" parent="tFxSJcbVjkW49yoVQv_u-1" vertex="1">
          <mxGeometry x="400" y="200" width="120" height="40" as="geometry" />
        </mxCell>
      </root>
    </mxGraphModel>
  </diagram>
  <diagram name="HTTP Client" id="U8sfL9FsSNlfCUIc2m1S">
    <mxGraphModel dx="1129" dy="1161" grid="1" gridSize="10" guides="1" tooltips="1" connect="1" arrows="1" fold="1" page="1" pageScale="1" pageWidth="1600" pageHeight="1200" math="0" shadow="0">
      <root>
        <mxCell id="pFq5Vl4KMVpp_2yytRFn-0" />
        <mxCell id="pFq5Vl4KMVpp_2yytRFn-1" parent="pFq5Vl4KMVpp_2yytRFn-0" />
        <mxCell id="WXZHlCq9oq42K7HE3coB-5" style="edgeStyle=orthogonalEdgeStyle;rounded=0;orthogonalLoop=1;jettySize=auto;html=1;entryX=0.5;entryY=0;entryDx=0;entryDy=0;" parent="pFq5Vl4KMVpp_2yytRFn-1" source="pFq5Vl4KMVpp_2yytRFn-3" target="WXZHlCq9oq42K7HE3coB-0" edge="1">
          <mxGeometry relative="1" as="geometry" />
        </mxCell>
        <mxCell id="pFq5Vl4KMVpp_2yytRFn-3" value="Controller" style="rounded=0;whiteSpace=wrap;html=1;" parent="pFq5Vl4KMVpp_2yytRFn-1" vertex="1">
          <mxGeometry x="440" y="480" width="160" height="80" as="geometry" />
        </mxCell>
        <mxCell id="pFq5Vl4KMVpp_2yytRFn-14" style="edgeStyle=orthogonalEdgeStyle;rounded=0;orthogonalLoop=1;jettySize=auto;html=1;entryX=0;entryY=0.5;entryDx=0;entryDy=0;" parent="pFq5Vl4KMVpp_2yytRFn-1" source="pFq5Vl4KMVpp_2yytRFn-15" target="WXZHlCq9oq42K7HE3coB-2" edge="1">
          <mxGeometry relative="1" as="geometry" />
        </mxCell>
        <mxCell id="pFq5Vl4KMVpp_2yytRFn-15" value="Request" style="strokeWidth=2;html=1;shape=mxgraph.flowchart.terminator;whiteSpace=wrap;" parent="pFq5Vl4KMVpp_2yytRFn-1" vertex="1">
          <mxGeometry x="160" y="90" width="160" height="60" as="geometry" />
        </mxCell>
        <mxCell id="pFq5Vl4KMVpp_2yytRFn-16" style="edgeStyle=orthogonalEdgeStyle;rounded=0;orthogonalLoop=1;jettySize=auto;html=1;entryX=0;entryY=0.5;entryDx=0;entryDy=0;startArrow=classic;startFill=1;endArrow=none;endFill=0;entryPerimeter=0;exitX=0;exitY=0.75;exitDx=0;exitDy=0;" parent="pFq5Vl4KMVpp_2yytRFn-1" source="WXZHlCq9oq42K7HE3coB-2" target="pFq5Vl4KMVpp_2yytRFn-17" edge="1">
          <mxGeometry relative="1" as="geometry">
            <Array as="points">
              <mxPoint x="380" y="140" />
              <mxPoint x="380" y="920" />
            </Array>
          </mxGeometry>
        </mxCell>
        <mxCell id="pFq5Vl4KMVpp_2yytRFn-17" value="Sub Request" style="strokeWidth=2;html=1;shape=mxgraph.flowchart.terminator;whiteSpace=wrap;" parent="pFq5Vl4KMVpp_2yytRFn-1" vertex="1">
          <mxGeometry x="440" y="890" width="160" height="60" as="geometry" />
        </mxCell>
        <mxCell id="WXZHlCq9oq42K7HE3coB-15" style="edgeStyle=orthogonalEdgeStyle;rounded=0;orthogonalLoop=1;jettySize=auto;html=1;" parent="pFq5Vl4KMVpp_2yytRFn-1" source="pFq5Vl4KMVpp_2yytRFn-19" target="WXZHlCq9oq42K7HE3coB-14" edge="1">
          <mxGeometry relative="1" as="geometry" />
        </mxCell>
        <mxCell id="pFq5Vl4KMVpp_2yytRFn-19" value="Response" style="strokeWidth=2;html=1;shape=mxgraph.flowchart.terminator;whiteSpace=wrap;" parent="pFq5Vl4KMVpp_2yytRFn-1" vertex="1">
          <mxGeometry x="1280" y="90" width="160" height="60" as="geometry" />
        </mxCell>
        <mxCell id="pFq5Vl4KMVpp_2yytRFn-22" value="Resolve Arguments" style="rounded=0;whiteSpace=wrap;html=1;" parent="pFq5Vl4KMVpp_2yytRFn-1" vertex="1">
          <mxGeometry x="1000" y="680" width="160" height="80" as="geometry" />
        </mxCell>
        <mxCell id="WXZHlCq9oq42K7HE3coB-12" style="edgeStyle=orthogonalEdgeStyle;rounded=0;orthogonalLoop=1;jettySize=auto;html=1;entryX=0.5;entryY=0;entryDx=0;entryDy=0;" parent="pFq5Vl4KMVpp_2yytRFn-1" source="pFq5Vl4KMVpp_2yytRFn-23" target="pFq5Vl4KMVpp_2yytRFn-22" edge="1">
          <mxGeometry relative="1" as="geometry" />
        </mxCell>
        <mxCell id="pFq5Vl4KMVpp_2yytRFn-23" value="Request" style="rounded=0;whiteSpace=wrap;html=1;" parent="pFq5Vl4KMVpp_2yytRFn-1" vertex="1">
          <mxGeometry x="1000" y="80" width="160" height="80" as="geometry" />
        </mxCell>
        <mxCell id="pFq5Vl4KMVpp_2yytRFn-24" style="edgeStyle=orthogonalEdgeStyle;rounded=0;orthogonalLoop=1;jettySize=auto;html=1;entryX=0;entryY=0.5;entryDx=0;entryDy=0;entryPerimeter=0;" parent="pFq5Vl4KMVpp_2yytRFn-1" source="pFq5Vl4KMVpp_2yytRFn-23" target="pFq5Vl4KMVpp_2yytRFn-19" edge="1">
          <mxGeometry relative="1" as="geometry" />
        </mxCell>
        <mxCell id="WXZHlCq9oq42K7HE3coB-9" style="edgeStyle=orthogonalEdgeStyle;rounded=0;orthogonalLoop=1;jettySize=auto;html=1;" parent="pFq5Vl4KMVpp_2yytRFn-1" source="WXZHlCq9oq42K7HE3coB-0" target="WXZHlCq9oq42K7HE3coB-7" edge="1">
          <mxGeometry relative="1" as="geometry" />
        </mxCell>
        <mxCell id="WXZHlCq9oq42K7HE3coB-0" value="Resolve Arguments" style="rounded=0;whiteSpace=wrap;html=1;" parent="pFq5Vl4KMVpp_2yytRFn-1" vertex="1">
          <mxGeometry x="440" y="680" width="160" height="80" as="geometry" />
        </mxCell>
        <mxCell id="WXZHlCq9oq42K7HE3coB-1" value="Resolve Controller" style="rounded=0;whiteSpace=wrap;html=1;" parent="pFq5Vl4KMVpp_2yytRFn-1" vertex="1">
          <mxGeometry x="440" y="280" width="160" height="80" as="geometry" />
        </mxCell>
        <mxCell id="WXZHlCq9oq42K7HE3coB-3" style="edgeStyle=orthogonalEdgeStyle;rounded=0;orthogonalLoop=1;jettySize=auto;html=1;" parent="pFq5Vl4KMVpp_2yytRFn-1" source="WXZHlCq9oq42K7HE3coB-2" target="WXZHlCq9oq42K7HE3coB-1" edge="1">
          <mxGeometry relative="1" as="geometry" />
        </mxCell>
        <mxCell id="WXZHlCq9oq42K7HE3coB-13" style="edgeStyle=orthogonalEdgeStyle;rounded=0;orthogonalLoop=1;jettySize=auto;html=1;" parent="pFq5Vl4KMVpp_2yytRFn-1" source="WXZHlCq9oq42K7HE3coB-2" target="pFq5Vl4KMVpp_2yytRFn-23" edge="1">
          <mxGeometry relative="1" as="geometry" />
        </mxCell>
        <mxCell id="WXZHlCq9oq42K7HE3coB-2" value="Front Controller" style="rounded=0;whiteSpace=wrap;html=1;" parent="pFq5Vl4KMVpp_2yytRFn-1" vertex="1">
          <mxGeometry x="440" y="80" width="160" height="80" as="geometry" />
        </mxCell>
        <mxCell id="WXZHlCq9oq42K7HE3coB-4" style="edgeStyle=orthogonalEdgeStyle;rounded=0;orthogonalLoop=1;jettySize=auto;html=1;entryX=0.5;entryY=0;entryDx=0;entryDy=0;" parent="pFq5Vl4KMVpp_2yytRFn-1" source="WXZHlCq9oq42K7HE3coB-1" target="pFq5Vl4KMVpp_2yytRFn-3" edge="1">
          <mxGeometry relative="1" as="geometry">
            <mxPoint x="518.02" y="486" as="targetPoint" />
          </mxGeometry>
        </mxCell>
        <mxCell id="WXZHlCq9oq42K7HE3coB-6" style="edgeStyle=orthogonalEdgeStyle;rounded=0;orthogonalLoop=1;jettySize=auto;html=1;entryX=0.5;entryY=0;entryDx=0;entryDy=0;entryPerimeter=0;" parent="pFq5Vl4KMVpp_2yytRFn-1" source="WXZHlCq9oq42K7HE3coB-0" target="pFq5Vl4KMVpp_2yytRFn-17" edge="1">
          <mxGeometry relative="1" as="geometry" />
        </mxCell>
        <mxCell id="WXZHlCq9oq42K7HE3coB-10" style="edgeStyle=orthogonalEdgeStyle;rounded=0;orthogonalLoop=1;jettySize=auto;html=1;entryX=0;entryY=0.5;entryDx=0;entryDy=0;" parent="pFq5Vl4KMVpp_2yytRFn-1" source="WXZHlCq9oq42K7HE3coB-7" target="pFq5Vl4KMVpp_2yytRFn-22" edge="1">
          <mxGeometry relative="1" as="geometry" />
        </mxCell>
        <mxCell id="WXZHlCq9oq42K7HE3coB-11" style="edgeStyle=orthogonalEdgeStyle;rounded=0;orthogonalLoop=1;jettySize=auto;html=1;entryX=0.25;entryY=1;entryDx=0;entryDy=0;" parent="pFq5Vl4KMVpp_2yytRFn-1" source="WXZHlCq9oq42K7HE3coB-7" target="pFq5Vl4KMVpp_2yytRFn-23" edge="1">
          <mxGeometry relative="1" as="geometry">
            <Array as="points">
              <mxPoint x="800" y="320" />
              <mxPoint x="1040" y="320" />
            </Array>
          </mxGeometry>
        </mxCell>
        <mxCell id="WXZHlCq9oq42K7HE3coB-7" value="Call Controller" style="strokeWidth=2;html=1;shape=mxgraph.flowchart.decision;whiteSpace=wrap;" parent="pFq5Vl4KMVpp_2yytRFn-1" vertex="1">
          <mxGeometry x="720" y="680" width="160" height="80" as="geometry" />
        </mxCell>
        <mxCell id="WXZHlCq9oq42K7HE3coB-14" value="Exception" style="rounded=0;whiteSpace=wrap;html=1;" parent="pFq5Vl4KMVpp_2yytRFn-1" vertex="1">
          <mxGeometry x="1280" y="680" width="160" height="80" as="geometry" />
        </mxCell>
      </root>
    </mxGraphModel>
  </diagram>
</mxfile>
